solid OpenSCAD_Model
  facet normal 0.998027 0.0627904 0
    outer loop
      vertex 0.06256 0 0.2
      vertex 0.0620667 0.00784085 -0.2
      vertex 0.0620667 0.00784085 0.2
    endloop
  endfacet
  facet normal 0.998027 0.0627904 0
    outer loop
      vertex 0.0620667 0.00784085 -0.2
      vertex 0.06256 0 0.2
      vertex 0.06256 0 -0.2
    endloop
  endfacet
  facet normal 0.982287 0.187381 0
    outer loop
      vertex 0.0620667 0.00784085 0.2
      vertex 0.0605946 0.015558 -0.2
      vertex 0.0605946 0.015558 0.2
    endloop
  endfacet
  facet normal 0.982287 0.187381 0
    outer loop
      vertex 0.0605946 0.015558 -0.2
      vertex 0.0620667 0.00784085 0.2
      vertex 0.0620667 0.00784085 -0.2
    endloop
  endfacet
  facet normal 0.951057 0.309017 0
    outer loop
      vertex 0.0605946 0.015558 0.2
      vertex 0.0581668 0.0230299 -0.2
      vertex 0.0581668 0.0230299 0.2
    endloop
  endfacet
  facet normal 0.951057 0.309017 0
    outer loop
      vertex 0.0581668 0.0230299 -0.2
      vertex 0.0605946 0.015558 0.2
      vertex 0.0605946 0.015558 -0.2
    endloop
  endfacet
  facet normal 0.904827 0.425779 0
    outer loop
      vertex 0.0581668 0.0230299 0.2
      vertex 0.0548217 0.0301385 -0.2
      vertex 0.0548217 0.0301385 0.2
    endloop
  endfacet
  facet normal 0.904827 0.425779 0
    outer loop
      vertex 0.0548217 0.0301385 -0.2
      vertex 0.0581668 0.0230299 0.2
      vertex 0.0581668 0.0230299 -0.2
    endloop
  endfacet
  facet normal 0.844328 0.535827 0
    outer loop
      vertex 0.0548217 0.0301385 0.2
      vertex 0.0506121 0.0367718 -0.2
      vertex 0.0506121 0.0367718 0.2
    endloop
  endfacet
  facet normal 0.844328 0.535827 0
    outer loop
      vertex 0.0506121 0.0367718 -0.2
      vertex 0.0548217 0.0301385 0.2
      vertex 0.0548217 0.0301385 -0.2
    endloop
  endfacet
  facet normal 0.770513 0.637424 0
    outer loop
      vertex 0.0506121 0.0367718 0.2
      vertex 0.0456043 0.0428253 -0.2
      vertex 0.0456043 0.0428253 0.2
    endloop
  endfacet
  facet normal 0.770513 0.637424 0
    outer loop
      vertex 0.0456043 0.0428253 -0.2
      vertex 0.0506121 0.0367718 0.2
      vertex 0.0506121 0.0367718 -0.2
    endloop
  endfacet
  facet normal 0.684547 0.728969 -0
    outer loop
      vertex 0.0456043 0.0428253 -0.2
      vertex 0.0398772 0.0482033 0.2
      vertex 0.0456043 0.0428253 0.2
    endloop
  endfacet
  facet normal 0.684547 0.728969 0
    outer loop
      vertex 0.0398772 0.0482033 0.2
      vertex 0.0456043 0.0428253 -0.2
      vertex 0.0398772 0.0482033 -0.2
    endloop
  endfacet
  facet normal 0.587785 0.809017 -0
    outer loop
      vertex 0.0398772 0.0482033 -0.2
      vertex 0.0335213 0.0528212 0.2
      vertex 0.0398772 0.0482033 0.2
    endloop
  endfacet
  facet normal 0.587785 0.809017 0
    outer loop
      vertex 0.0335213 0.0528212 0.2
      vertex 0.0398772 0.0482033 -0.2
      vertex 0.0335213 0.0528212 -0.2
    endloop
  endfacet
  facet normal 0.481754 0.876307 -0
    outer loop
      vertex 0.0335213 0.0528212 -0.2
      vertex 0.0266368 0.056606 0.2
      vertex 0.0335213 0.0528212 0.2
    endloop
  endfacet
  facet normal 0.481754 0.876307 0
    outer loop
      vertex 0.0266368 0.056606 0.2
      vertex 0.0335213 0.0528212 -0.2
      vertex 0.0266368 0.056606 -0.2
    endloop
  endfacet
  facet normal 0.368124 0.929777 -0
    outer loop
      vertex 0.0266368 0.056606 -0.2
      vertex 0.0193321 0.0594981 0.2
      vertex 0.0266368 0.056606 0.2
    endloop
  endfacet
  facet normal 0.368124 0.929777 0
    outer loop
      vertex 0.0193321 0.0594981 0.2
      vertex 0.0266368 0.056606 -0.2
      vertex 0.0193321 0.0594981 -0.2
    endloop
  endfacet
  facet normal 0.24869 0.968583 -0
    outer loop
      vertex 0.0193321 0.0594981 -0.2
      vertex 0.0117226 0.0614519 0.2
      vertex 0.0193321 0.0594981 0.2
    endloop
  endfacet
  facet normal 0.24869 0.968583 0
    outer loop
      vertex 0.0117226 0.0614519 0.2
      vertex 0.0193321 0.0594981 -0.2
      vertex 0.0117226 0.0614519 -0.2
    endloop
  endfacet
  facet normal 0.125333 0.992115 -0
    outer loop
      vertex 0.0117226 0.0614519 -0.2
      vertex 0.00392817 0.0624366 0.2
      vertex 0.0117226 0.0614519 0.2
    endloop
  endfacet
  facet normal 0.125333 0.992115 0
    outer loop
      vertex 0.00392817 0.0624366 0.2
      vertex 0.0117226 0.0614519 -0.2
      vertex 0.00392817 0.0624366 -0.2
    endloop
  endfacet
  facet normal 0 1 -0
    outer loop
      vertex 0.00392817 0.0624366 -0.2
      vertex -0.00392817 0.0624366 0.2
      vertex 0.00392817 0.0624366 0.2
    endloop
  endfacet
  facet normal 0 1 0
    outer loop
      vertex -0.00392817 0.0624366 0.2
      vertex 0.00392817 0.0624366 -0.2
      vertex -0.00392817 0.0624366 -0.2
    endloop
  endfacet
  facet normal -0.125333 0.992115 0
    outer loop
      vertex -0.00392817 0.0624366 -0.2
      vertex -0.0117226 0.0614519 0.2
      vertex -0.00392817 0.0624366 0.2
    endloop
  endfacet
  facet normal -0.125333 0.992115 0
    outer loop
      vertex -0.0117226 0.0614519 0.2
      vertex -0.00392817 0.0624366 -0.2
      vertex -0.0117226 0.0614519 -0.2
    endloop
  endfacet
  facet normal -0.24869 0.968583 0
    outer loop
      vertex -0.0117226 0.0614519 -0.2
      vertex -0.0193321 0.0594981 0.2
      vertex -0.0117226 0.0614519 0.2
    endloop
  endfacet
  facet normal -0.24869 0.968583 0
    outer loop
      vertex -0.0193321 0.0594981 0.2
      vertex -0.0117226 0.0614519 -0.2
      vertex -0.0193321 0.0594981 -0.2
    endloop
  endfacet
  facet normal -0.368124 0.929777 0
    outer loop
      vertex -0.0193321 0.0594981 -0.2
      vertex -0.0266368 0.056606 0.2
      vertex -0.0193321 0.0594981 0.2
    endloop
  endfacet
  facet normal -0.368124 0.929777 0
    outer loop
      vertex -0.0266368 0.056606 0.2
      vertex -0.0193321 0.0594981 -0.2
      vertex -0.0266368 0.056606 -0.2
    endloop
  endfacet
  facet normal -0.481754 0.876307 0
    outer loop
      vertex -0.0266368 0.056606 -0.2
      vertex -0.0335213 0.0528212 0.2
      vertex -0.0266368 0.056606 0.2
    endloop
  endfacet
  facet normal -0.481754 0.876307 0
    outer loop
      vertex -0.0335213 0.0528212 0.2
      vertex -0.0266368 0.056606 -0.2
      vertex -0.0335213 0.0528212 -0.2
    endloop
  endfacet
  facet normal -0.587785 0.809017 0
    outer loop
      vertex -0.0335213 0.0528212 -0.2
      vertex -0.0398772 0.0482033 0.2
      vertex -0.0335213 0.0528212 0.2
    endloop
  endfacet
  facet normal -0.587785 0.809017 0
    outer loop
      vertex -0.0398772 0.0482033 0.2
      vertex -0.0335213 0.0528212 -0.2
      vertex -0.0398772 0.0482033 -0.2
    endloop
  endfacet
  facet normal -0.684547 0.728969 0
    outer loop
      vertex -0.0398772 0.0482033 -0.2
      vertex -0.0456043 0.0428253 0.2
      vertex -0.0398772 0.0482033 0.2
    endloop
  endfacet
  facet normal -0.684547 0.728969 0
    outer loop
      vertex -0.0456043 0.0428253 0.2
      vertex -0.0398772 0.0482033 -0.2
      vertex -0.0456043 0.0428253 -0.2
    endloop
  endfacet
  facet normal -0.770513 0.637424 0
    outer loop
      vertex -0.0506121 0.0367718 -0.2
      vertex -0.0456043 0.0428253 0.2
      vertex -0.0456043 0.0428253 -0.2
    endloop
  endfacet
  facet normal -0.770513 0.637424 0
    outer loop
      vertex -0.0456043 0.0428253 0.2
      vertex -0.0506121 0.0367718 -0.2
      vertex -0.0506121 0.0367718 0.2
    endloop
  endfacet
  facet normal -0.844328 0.535827 0
    outer loop
      vertex -0.0548217 0.0301385 -0.2
      vertex -0.0506121 0.0367718 0.2
      vertex -0.0506121 0.0367718 -0.2
    endloop
  endfacet
  facet normal -0.844328 0.535827 0
    outer loop
      vertex -0.0506121 0.0367718 0.2
      vertex -0.0548217 0.0301385 -0.2
      vertex -0.0548217 0.0301385 0.2
    endloop
  endfacet
  facet normal -0.904827 0.425779 0
    outer loop
      vertex -0.0581668 0.0230299 -0.2
      vertex -0.0548217 0.0301385 0.2
      vertex -0.0548217 0.0301385 -0.2
    endloop
  endfacet
  facet normal -0.904827 0.425779 0
    outer loop
      vertex -0.0548217 0.0301385 0.2
      vertex -0.0581668 0.0230299 -0.2
      vertex -0.0581668 0.0230299 0.2
    endloop
  endfacet
  facet normal -0.951057 0.309017 0
    outer loop
      vertex -0.0605946 0.015558 -0.2
      vertex -0.0581668 0.0230299 0.2
      vertex -0.0581668 0.0230299 -0.2
    endloop
  endfacet
  facet normal -0.951057 0.309017 0
    outer loop
      vertex -0.0581668 0.0230299 0.2
      vertex -0.0605946 0.015558 -0.2
      vertex -0.0605946 0.015558 0.2
    endloop
  endfacet
  facet normal -0.982287 0.187381 0
    outer loop
      vertex -0.0620667 0.00784085 -0.2
      vertex -0.0605946 0.015558 0.2
      vertex -0.0605946 0.015558 -0.2
    endloop
  endfacet
  facet normal -0.982287 0.187381 0
    outer loop
      vertex -0.0605946 0.015558 0.2
      vertex -0.0620667 0.00784085 -0.2
      vertex -0.0620667 0.00784085 0.2
    endloop
  endfacet
  facet normal -0.998027 0.0627904 0
    outer loop
      vertex -0.06256 7.66139e-18 -0.2
      vertex -0.0620667 0.00784085 0.2
      vertex -0.0620667 0.00784085 -0.2
    endloop
  endfacet
  facet normal -0.998027 0.0627904 0
    outer loop
      vertex -0.0620667 0.00784085 0.2
      vertex -0.06256 7.66139e-18 -0.2
      vertex -0.06256 7.66139e-18 0.2
    endloop
  endfacet
  facet normal -0.998027 -0.0627904 0
    outer loop
      vertex -0.0620667 -0.00784085 -0.2
      vertex -0.06256 7.66139e-18 0.2
      vertex -0.06256 7.66139e-18 -0.2
    endloop
  endfacet
  facet normal -0.998027 -0.0627904 0
    outer loop
      vertex -0.06256 7.66139e-18 0.2
      vertex -0.0620667 -0.00784085 -0.2
      vertex -0.0620667 -0.00784085 0.2
    endloop
  endfacet
  facet normal -0.982287 -0.187381 0
    outer loop
      vertex -0.0605946 -0.015558 -0.2
      vertex -0.0620667 -0.00784085 0.2
      vertex -0.0620667 -0.00784085 -0.2
    endloop
  endfacet
  facet normal -0.982287 -0.187381 0
    outer loop
      vertex -0.0620667 -0.00784085 0.2
      vertex -0.0605946 -0.015558 -0.2
      vertex -0.0605946 -0.015558 0.2
    endloop
  endfacet
  facet normal -0.951057 -0.309017 0
    outer loop
      vertex -0.0581668 -0.0230299 -0.2
      vertex -0.0605946 -0.015558 0.2
      vertex -0.0605946 -0.015558 -0.2
    endloop
  endfacet
  facet normal -0.951057 -0.309017 0
    outer loop
      vertex -0.0605946 -0.015558 0.2
      vertex -0.0581668 -0.0230299 -0.2
      vertex -0.0581668 -0.0230299 0.2
    endloop
  endfacet
  facet normal -0.904827 -0.425779 0
    outer loop
      vertex -0.0548217 -0.0301385 -0.2
      vertex -0.0581668 -0.0230299 0.2
      vertex -0.0581668 -0.0230299 -0.2
    endloop
  endfacet
  facet normal -0.904827 -0.425779 0
    outer loop
      vertex -0.0581668 -0.0230299 0.2
      vertex -0.0548217 -0.0301385 -0.2
      vertex -0.0548217 -0.0301385 0.2
    endloop
  endfacet
  facet normal -0.844328 -0.535827 0
    outer loop
      vertex -0.0506121 -0.0367718 -0.2
      vertex -0.0548217 -0.0301385 0.2
      vertex -0.0548217 -0.0301385 -0.2
    endloop
  endfacet
  facet normal -0.844328 -0.535827 0
    outer loop
      vertex -0.0548217 -0.0301385 0.2
      vertex -0.0506121 -0.0367718 -0.2
      vertex -0.0506121 -0.0367718 0.2
    endloop
  endfacet
  facet normal -0.770513 -0.637424 0
    outer loop
      vertex -0.0456043 -0.0428253 -0.2
      vertex -0.0506121 -0.0367718 0.2
      vertex -0.0506121 -0.0367718 -0.2
    endloop
  endfacet
  facet normal -0.770513 -0.637424 0
    outer loop
      vertex -0.0506121 -0.0367718 0.2
      vertex -0.0456043 -0.0428253 -0.2
      vertex -0.0456043 -0.0428253 0.2
    endloop
  endfacet
  facet normal -0.684547 -0.728969 0
    outer loop
      vertex -0.0456043 -0.0428253 -0.2
      vertex -0.0398772 -0.0482033 0.2
      vertex -0.0456043 -0.0428253 0.2
    endloop
  endfacet
  facet normal -0.684547 -0.728969 -0
    outer loop
      vertex -0.0398772 -0.0482033 0.2
      vertex -0.0456043 -0.0428253 -0.2
      vertex -0.0398772 -0.0482033 -0.2
    endloop
  endfacet
  facet normal -0.587785 -0.809017 0
    outer loop
      vertex -0.0398772 -0.0482033 -0.2
      vertex -0.0335213 -0.0528212 0.2
      vertex -0.0398772 -0.0482033 0.2
    endloop
  endfacet
  facet normal -0.587785 -0.809017 -0
    outer loop
      vertex -0.0335213 -0.0528212 0.2
      vertex -0.0398772 -0.0482033 -0.2
      vertex -0.0335213 -0.0528212 -0.2
    endloop
  endfacet
  facet normal -0.481754 -0.876307 0
    outer loop
      vertex -0.0335213 -0.0528212 -0.2
      vertex -0.0266368 -0.056606 0.2
      vertex -0.0335213 -0.0528212 0.2
    endloop
  endfacet
  facet normal -0.481754 -0.876307 -0
    outer loop
      vertex -0.0266368 -0.056606 0.2
      vertex -0.0335213 -0.0528212 -0.2
      vertex -0.0266368 -0.056606 -0.2
    endloop
  endfacet
  facet normal -0.368124 -0.929777 0
    outer loop
      vertex -0.0266368 -0.056606 -0.2
      vertex -0.0193321 -0.0594981 0.2
      vertex -0.0266368 -0.056606 0.2
    endloop
  endfacet
  facet normal -0.368124 -0.929777 -0
    outer loop
      vertex -0.0193321 -0.0594981 0.2
      vertex -0.0266368 -0.056606 -0.2
      vertex -0.0193321 -0.0594981 -0.2
    endloop
  endfacet
  facet normal -0.24869 -0.968583 0
    outer loop
      vertex -0.0193321 -0.0594981 -0.2
      vertex -0.0117226 -0.0614519 0.2
      vertex -0.0193321 -0.0594981 0.2
    endloop
  endfacet
  facet normal -0.24869 -0.968583 -0
    outer loop
      vertex -0.0117226 -0.0614519 0.2
      vertex -0.0193321 -0.0594981 -0.2
      vertex -0.0117226 -0.0614519 -0.2
    endloop
  endfacet
  facet normal -0.125333 -0.992115 0
    outer loop
      vertex -0.0117226 -0.0614519 -0.2
      vertex -0.00392817 -0.0624366 0.2
      vertex -0.0117226 -0.0614519 0.2
    endloop
  endfacet
  facet normal -0.125333 -0.992115 -0
    outer loop
      vertex -0.00392817 -0.0624366 0.2
      vertex -0.0117226 -0.0614519 -0.2
      vertex -0.00392817 -0.0624366 -0.2
    endloop
  endfacet
  facet normal 0 -1 0
    outer loop
      vertex -0.00392817 -0.0624366 -0.2
      vertex 0.00392817 -0.0624366 0.2
      vertex -0.00392817 -0.0624366 0.2
    endloop
  endfacet
  facet normal 0 -1 -0
    outer loop
      vertex 0.00392817 -0.0624366 0.2
      vertex -0.00392817 -0.0624366 -0.2
      vertex 0.00392817 -0.0624366 -0.2
    endloop
  endfacet
  facet normal 0.125333 -0.992115 0
    outer loop
      vertex 0.00392817 -0.0624366 -0.2
      vertex 0.0117226 -0.0614519 0.2
      vertex 0.00392817 -0.0624366 0.2
    endloop
  endfacet
  facet normal 0.125333 -0.992115 0
    outer loop
      vertex 0.0117226 -0.0614519 0.2
      vertex 0.00392817 -0.0624366 -0.2
      vertex 0.0117226 -0.0614519 -0.2
    endloop
  endfacet
  facet normal 0.24869 -0.968583 0
    outer loop
      vertex 0.0117226 -0.0614519 -0.2
      vertex 0.0193321 -0.0594981 0.2
      vertex 0.0117226 -0.0614519 0.2
    endloop
  endfacet
  facet normal 0.24869 -0.968583 0
    outer loop
      vertex 0.0193321 -0.0594981 0.2
      vertex 0.0117226 -0.0614519 -0.2
      vertex 0.0193321 -0.0594981 -0.2
    endloop
  endfacet
  facet normal 0.368124 -0.929777 0
    outer loop
      vertex 0.0193321 -0.0594981 -0.2
      vertex 0.0266368 -0.056606 0.2
      vertex 0.0193321 -0.0594981 0.2
    endloop
  endfacet
  facet normal 0.368124 -0.929777 0
    outer loop
      vertex 0.0266368 -0.056606 0.2
      vertex 0.0193321 -0.0594981 -0.2
      vertex 0.0266368 -0.056606 -0.2
    endloop
  endfacet
  facet normal 0.481754 -0.876307 0
    outer loop
      vertex 0.0266368 -0.056606 -0.2
      vertex 0.0335213 -0.0528212 0.2
      vertex 0.0266368 -0.056606 0.2
    endloop
  endfacet
  facet normal 0.481754 -0.876307 0
    outer loop
      vertex 0.0335213 -0.0528212 0.2
      vertex 0.0266368 -0.056606 -0.2
      vertex 0.0335213 -0.0528212 -0.2
    endloop
  endfacet
  facet normal 0.587785 -0.809017 0
    outer loop
      vertex 0.0335213 -0.0528212 -0.2
      vertex 0.0398772 -0.0482033 0.2
      vertex 0.0335213 -0.0528212 0.2
    endloop
  endfacet
  facet normal 0.587785 -0.809017 0
    outer loop
      vertex 0.0398772 -0.0482033 0.2
      vertex 0.0335213 -0.0528212 -0.2
      vertex 0.0398772 -0.0482033 -0.2
    endloop
  endfacet
  facet normal 0.684547 -0.728969 0
    outer loop
      vertex 0.0398772 -0.0482033 -0.2
      vertex 0.0456043 -0.0428253 0.2
      vertex 0.0398772 -0.0482033 0.2
    endloop
  endfacet
  facet normal 0.684547 -0.728969 0
    outer loop
      vertex 0.0456043 -0.0428253 0.2
      vertex 0.0398772 -0.0482033 -0.2
      vertex 0.0456043 -0.0428253 -0.2
    endloop
  endfacet
  facet normal 0.770513 -0.637424 0
    outer loop
      vertex 0.0456043 -0.0428253 0.2
      vertex 0.0506121 -0.0367718 -0.2
      vertex 0.0506121 -0.0367718 0.2
    endloop
  endfacet
  facet normal 0.770513 -0.637424 0
    outer loop
      vertex 0.0506121 -0.0367718 -0.2
      vertex 0.0456043 -0.0428253 0.2
      vertex 0.0456043 -0.0428253 -0.2
    endloop
  endfacet
  facet normal 0.844328 -0.535827 0
    outer loop
      vertex 0.0506121 -0.0367718 0.2
      vertex 0.0548217 -0.0301385 -0.2
      vertex 0.0548217 -0.0301385 0.2
    endloop
  endfacet
  facet normal 0.844328 -0.535827 0
    outer loop
      vertex 0.0548217 -0.0301385 -0.2
      vertex 0.0506121 -0.0367718 0.2
      vertex 0.0506121 -0.0367718 -0.2
    endloop
  endfacet
  facet normal 0.904827 -0.425779 0
    outer loop
      vertex 0.0548217 -0.0301385 0.2
      vertex 0.0581668 -0.0230299 -0.2
      vertex 0.0581668 -0.0230299 0.2
    endloop
  endfacet
  facet normal 0.904827 -0.425779 0
    outer loop
      vertex 0.0581668 -0.0230299 -0.2
      vertex 0.0548217 -0.0301385 0.2
      vertex 0.0548217 -0.0301385 -0.2
    endloop
  endfacet
  facet normal 0.951057 -0.309017 0
    outer loop
      vertex 0.0581668 -0.0230299 0.2
      vertex 0.0605946 -0.015558 -0.2
      vertex 0.0605946 -0.015558 0.2
    endloop
  endfacet
  facet normal 0.951057 -0.309017 0
    outer loop
      vertex 0.0605946 -0.015558 -0.2
      vertex 0.0581668 -0.0230299 0.2
      vertex 0.0581668 -0.0230299 -0.2
    endloop
  endfacet
  facet normal 0.982287 -0.187381 0
    outer loop
      vertex 0.0605946 -0.015558 0.2
      vertex 0.0620667 -0.00784085 -0.2
      vertex 0.0620667 -0.00784085 0.2
    endloop
  endfacet
  facet normal 0.982287 -0.187381 0
    outer loop
      vertex 0.0620667 -0.00784085 -0.2
      vertex 0.0605946 -0.015558 0.2
      vertex 0.0605946 -0.015558 -0.2
    endloop
  endfacet
  facet normal 0.998027 -0.0627904 0
    outer loop
      vertex 0.0620667 -0.00784085 0.2
      vertex 0.06256 0 -0.2
      vertex 0.06256 0 0.2
    endloop
  endfacet
  facet normal 0.998027 -0.0627904 0
    outer loop
      vertex 0.06256 0 -0.2
      vertex 0.0620667 -0.00784085 0.2
      vertex 0.0620667 -0.00784085 -0.2
    endloop
  endfacet
  facet normal 0 0 -1
    outer loop
      vertex 0.0620667 -0.00784085 -0.2
      vertex 0.0620667 0.00784085 -0.2
      vertex 0.06256 0 -0.2
    endloop
  endfacet
  facet normal 0 0 -1
    outer loop
      vertex 0.0605946 -0.015558 -0.2
      vertex 0.0620667 0.00784085 -0.2
      vertex 0.0620667 -0.00784085 -0.2
    endloop
  endfacet
  facet normal 0 0 -1
    outer loop
      vertex 0.0605946 -0.015558 -0.2
      vertex 0.0605946 0.015558 -0.2
      vertex 0.0620667 0.00784085 -0.2
    endloop
  endfacet
  facet normal 0 0 -1
    outer loop
      vertex 0.0581668 -0.0230299 -0.2
      vertex 0.0605946 0.015558 -0.2
      vertex 0.0605946 -0.015558 -0.2
    endloop
  endfacet
  facet normal 0 0 -1
    outer loop
      vertex 0.0581668 -0.0230299 -0.2
      vertex 0.0581668 0.0230299 -0.2
      vertex 0.0605946 0.015558 -0.2
    endloop
  endfacet
  facet normal 0 0 -1
    outer loop
      vertex 0.0548217 -0.0301385 -0.2
      vertex 0.0581668 0.0230299 -0.2
      vertex 0.0581668 -0.0230299 -0.2
    endloop
  endfacet
  facet normal 0 0 -1
    outer loop
      vertex 0.0548217 -0.0301385 -0.2
      vertex 0.0548217 0.0301385 -0.2
      vertex 0.0581668 0.0230299 -0.2
    endloop
  endfacet
  facet normal 0 0 -1
    outer loop
      vertex 0.0506121 -0.0367718 -0.2
      vertex 0.0548217 0.0301385 -0.2
      vertex 0.0548217 -0.0301385 -0.2
    endloop
  endfacet
  facet normal 0 0 -1
    outer loop
      vertex 0.0506121 -0.0367718 -0.2
      vertex 0.0506121 0.0367718 -0.2
      vertex 0.0548217 0.0301385 -0.2
    endloop
  endfacet
  facet normal 0 0 -1
    outer loop
      vertex 0.0456043 -0.0428253 -0.2
      vertex 0.0506121 0.0367718 -0.2
      vertex 0.0506121 -0.0367718 -0.2
    endloop
  endfacet
  facet normal 0 0 -1
    outer loop
      vertex 0.0456043 -0.0428253 -0.2
      vertex 0.0456043 0.0428253 -0.2
      vertex 0.0506121 0.0367718 -0.2
    endloop
  endfacet
  facet normal 0 0 -1
    outer loop
      vertex 0.0398772 -0.0482033 -0.2
      vertex 0.0456043 0.0428253 -0.2
      vertex 0.0456043 -0.0428253 -0.2
    endloop
  endfacet
  facet normal 0 0 -1
    outer loop
      vertex 0.0398772 -0.0482033 -0.2
      vertex 0.0398772 0.0482033 -0.2
      vertex 0.0456043 0.0428253 -0.2
    endloop
  endfacet
  facet normal 0 0 -1
    outer loop
      vertex 0.0335213 -0.0528212 -0.2
      vertex 0.0398772 0.0482033 -0.2
      vertex 0.0398772 -0.0482033 -0.2
    endloop
  endfacet
  facet normal 0 0 -1
    outer loop
      vertex 0.0335213 -0.0528212 -0.2
      vertex 0.0335213 0.0528212 -0.2
      vertex 0.0398772 0.0482033 -0.2
    endloop
  endfacet
  facet normal 0 0 -1
    outer loop
      vertex 0.0266368 -0.056606 -0.2
      vertex 0.0335213 0.0528212 -0.2
      vertex 0.0335213 -0.0528212 -0.2
    endloop
  endfacet
  facet normal 0 0 -1
    outer loop
      vertex 0.0266368 -0.056606 -0.2
      vertex 0.0266368 0.056606 -0.2
      vertex 0.0335213 0.0528212 -0.2
    endloop
  endfacet
  facet normal 0 0 -1
    outer loop
      vertex 0.0193321 -0.0594981 -0.2
      vertex 0.0266368 0.056606 -0.2
      vertex 0.0266368 -0.056606 -0.2
    endloop
  endfacet
  facet normal 0 0 -1
    outer loop
      vertex 0.0193321 -0.0594981 -0.2
      vertex 0.0193321 0.0594981 -0.2
      vertex 0.0266368 0.056606 -0.2
    endloop
  endfacet
  facet normal 0 0 -1
    outer loop
      vertex 0.0117226 -0.0614519 -0.2
      vertex 0.0193321 0.0594981 -0.2
      vertex 0.0193321 -0.0594981 -0.2
    endloop
  endfacet
  facet normal 0 0 -1
    outer loop
      vertex 0.0117226 -0.0614519 -0.2
      vertex 0.0117226 0.0614519 -0.2
      vertex 0.0193321 0.0594981 -0.2
    endloop
  endfacet
  facet normal 0 0 -1
    outer loop
      vertex 0.00392817 -0.0624366 -0.2
      vertex 0.0117226 0.0614519 -0.2
      vertex 0.0117226 -0.0614519 -0.2
    endloop
  endfacet
  facet normal 0 0 -1
    outer loop
      vertex 0.00392817 -0.0624366 -0.2
      vertex 0.00392817 0.0624366 -0.2
      vertex 0.0117226 0.0614519 -0.2
    endloop
  endfacet
  facet normal 0 0 -1
    outer loop
      vertex -0.00392817 -0.0624366 -0.2
      vertex 0.00392817 0.0624366 -0.2
      vertex 0.00392817 -0.0624366 -0.2
    endloop
  endfacet
  facet normal 0 0 -1
    outer loop
      vertex -0.00392817 -0.0624366 -0.2
      vertex -0.00392817 0.0624366 -0.2
      vertex 0.00392817 0.0624366 -0.2
    endloop
  endfacet
  facet normal 0 0 -1
    outer loop
      vertex -0.0117226 -0.0614519 -0.2
      vertex -0.00392817 0.0624366 -0.2
      vertex -0.00392817 -0.0624366 -0.2
    endloop
  endfacet
  facet normal 0 0 -1
    outer loop
      vertex -0.0117226 -0.0614519 -0.2
      vertex -0.0117226 0.0614519 -0.2
      vertex -0.00392817 0.0624366 -0.2
    endloop
  endfacet
  facet normal 0 0 -1
    outer loop
      vertex -0.0193321 -0.0594981 -0.2
      vertex -0.0117226 0.0614519 -0.2
      vertex -0.0117226 -0.0614519 -0.2
    endloop
  endfacet
  facet normal 0 0 -1
    outer loop
      vertex -0.0193321 -0.0594981 -0.2
      vertex -0.0193321 0.0594981 -0.2
      vertex -0.0117226 0.0614519 -0.2
    endloop
  endfacet
  facet normal 0 0 -1
    outer loop
      vertex -0.0266368 -0.056606 -0.2
      vertex -0.0193321 0.0594981 -0.2
      vertex -0.0193321 -0.0594981 -0.2
    endloop
  endfacet
  facet normal 0 0 -1
    outer loop
      vertex -0.0266368 -0.056606 -0.2
      vertex -0.0266368 0.056606 -0.2
      vertex -0.0193321 0.0594981 -0.2
    endloop
  endfacet
  facet normal 0 0 -1
    outer loop
      vertex -0.0335213 -0.0528212 -0.2
      vertex -0.0266368 0.056606 -0.2
      vertex -0.0266368 -0.056606 -0.2
    endloop
  endfacet
  facet normal 0 0 -1
    outer loop
      vertex -0.0335213 -0.0528212 -0.2
      vertex -0.0335213 0.0528212 -0.2
      vertex -0.0266368 0.056606 -0.2
    endloop
  endfacet
  facet normal 0 0 -1
    outer loop
      vertex -0.0398772 -0.0482033 -0.2
      vertex -0.0335213 0.0528212 -0.2
      vertex -0.0335213 -0.0528212 -0.2
    endloop
  endfacet
  facet normal 0 0 -1
    outer loop
      vertex -0.0398772 -0.0482033 -0.2
      vertex -0.0398772 0.0482033 -0.2
      vertex -0.0335213 0.0528212 -0.2
    endloop
  endfacet
  facet normal 0 0 -1
    outer loop
      vertex -0.0456043 -0.0428253 -0.2
      vertex -0.0398772 0.0482033 -0.2
      vertex -0.0398772 -0.0482033 -0.2
    endloop
  endfacet
  facet normal 0 0 -1
    outer loop
      vertex -0.0456043 -0.0428253 -0.2
      vertex -0.0456043 0.0428253 -0.2
      vertex -0.0398772 0.0482033 -0.2
    endloop
  endfacet
  facet normal 0 0 -1
    outer loop
      vertex -0.0506121 -0.0367718 -0.2
      vertex -0.0456043 0.0428253 -0.2
      vertex -0.0456043 -0.0428253 -0.2
    endloop
  endfacet
  facet normal 0 0 -1
    outer loop
      vertex -0.0506121 -0.0367718 -0.2
      vertex -0.0506121 0.0367718 -0.2
      vertex -0.0456043 0.0428253 -0.2
    endloop
  endfacet
  facet normal 0 0 -1
    outer loop
      vertex -0.0548217 -0.0301385 -0.2
      vertex -0.0506121 0.0367718 -0.2
      vertex -0.0506121 -0.0367718 -0.2
    endloop
  endfacet
  facet normal 0 0 -1
    outer loop
      vertex -0.0548217 -0.0301385 -0.2
      vertex -0.0548217 0.0301385 -0.2
      vertex -0.0506121 0.0367718 -0.2
    endloop
  endfacet
  facet normal 0 0 -1
    outer loop
      vertex -0.0581668 -0.0230299 -0.2
      vertex -0.0548217 0.0301385 -0.2
      vertex -0.0548217 -0.0301385 -0.2
    endloop
  endfacet
  facet normal 0 0 -1
    outer loop
      vertex -0.0581668 -0.0230299 -0.2
      vertex -0.0581668 0.0230299 -0.2
      vertex -0.0548217 0.0301385 -0.2
    endloop
  endfacet
  facet normal 0 0 -1
    outer loop
      vertex -0.0605946 -0.015558 -0.2
      vertex -0.0581668 0.0230299 -0.2
      vertex -0.0581668 -0.0230299 -0.2
    endloop
  endfacet
  facet normal 0 0 -1
    outer loop
      vertex -0.0605946 -0.015558 -0.2
      vertex -0.0605946 0.015558 -0.2
      vertex -0.0581668 0.0230299 -0.2
    endloop
  endfacet
  facet normal 0 0 -1
    outer loop
      vertex -0.0620667 -0.00784085 -0.2
      vertex -0.0605946 0.015558 -0.2
      vertex -0.0605946 -0.015558 -0.2
    endloop
  endfacet
  facet normal 0 0 -1
    outer loop
      vertex -0.0620667 -0.00784085 -0.2
      vertex -0.0620667 0.00784085 -0.2
      vertex -0.0605946 0.015558 -0.2
    endloop
  endfacet
  facet normal 0 -0 -1
    outer loop
      vertex -0.0620667 0.00784085 -0.2
      vertex -0.0620667 -0.00784085 -0.2
      vertex -0.06256 7.66139e-18 -0.2
    endloop
  endfacet
  facet normal 0 0 1
    outer loop
      vertex 0.0620667 0.00784085 0.2
      vertex 0.0620667 -0.00784085 0.2
      vertex 0.06256 0 0.2
    endloop
  endfacet
  facet normal 0 0 1
    outer loop
      vertex 0.0605946 0.015558 0.2
      vertex 0.0620667 -0.00784085 0.2
      vertex 0.0620667 0.00784085 0.2
    endloop
  endfacet
  facet normal 0 0 1
    outer loop
      vertex 0.0605946 0.015558 0.2
      vertex 0.0605946 -0.015558 0.2
      vertex 0.0620667 -0.00784085 0.2
    endloop
  endfacet
  facet normal 0 0 1
    outer loop
      vertex 0.0581668 0.0230299 0.2
      vertex 0.0605946 -0.015558 0.2
      vertex 0.0605946 0.015558 0.2
    endloop
  endfacet
  facet normal 0 0 1
    outer loop
      vertex 0.0581668 0.0230299 0.2
      vertex 0.0581668 -0.0230299 0.2
      vertex 0.0605946 -0.015558 0.2
    endloop
  endfacet
  facet normal 0 0 1
    outer loop
      vertex 0.0548217 0.0301385 0.2
      vertex 0.0581668 -0.0230299 0.2
      vertex 0.0581668 0.0230299 0.2
    endloop
  endfacet
  facet normal 0 0 1
    outer loop
      vertex 0.0548217 0.0301385 0.2
      vertex 0.0548217 -0.0301385 0.2
      vertex 0.0581668 -0.0230299 0.2
    endloop
  endfacet
  facet normal 0 0 1
    outer loop
      vertex 0.0506121 0.0367718 0.2
      vertex 0.0548217 -0.0301385 0.2
      vertex 0.0548217 0.0301385 0.2
    endloop
  endfacet
  facet normal 0 0 1
    outer loop
      vertex 0.0506121 0.0367718 0.2
      vertex 0.0506121 -0.0367718 0.2
      vertex 0.0548217 -0.0301385 0.2
    endloop
  endfacet
  facet normal 0 0 1
    outer loop
      vertex 0.0456043 0.0428253 0.2
      vertex 0.0506121 -0.0367718 0.2
      vertex 0.0506121 0.0367718 0.2
    endloop
  endfacet
  facet normal 0 0 1
    outer loop
      vertex 0.0456043 0.0428253 0.2
      vertex 0.0456043 -0.0428253 0.2
      vertex 0.0506121 -0.0367718 0.2
    endloop
  endfacet
  facet normal 0 0 1
    outer loop
      vertex 0.0398772 0.0482033 0.2
      vertex 0.0456043 -0.0428253 0.2
      vertex 0.0456043 0.0428253 0.2
    endloop
  endfacet
  facet normal 0 0 1
    outer loop
      vertex 0.0398772 0.0482033 0.2
      vertex 0.0398772 -0.0482033 0.2
      vertex 0.0456043 -0.0428253 0.2
    endloop
  endfacet
  facet normal 0 0 1
    outer loop
      vertex 0.0335213 0.0528212 0.2
      vertex 0.0398772 -0.0482033 0.2
      vertex 0.0398772 0.0482033 0.2
    endloop
  endfacet
  facet normal 0 0 1
    outer loop
      vertex 0.0335213 0.0528212 0.2
      vertex 0.0335213 -0.0528212 0.2
      vertex 0.0398772 -0.0482033 0.2
    endloop
  endfacet
  facet normal 0 0 1
    outer loop
      vertex 0.0266368 0.056606 0.2
      vertex 0.0335213 -0.0528212 0.2
      vertex 0.0335213 0.0528212 0.2
    endloop
  endfacet
  facet normal 0 0 1
    outer loop
      vertex 0.0266368 0.056606 0.2
      vertex 0.0266368 -0.056606 0.2
      vertex 0.0335213 -0.0528212 0.2
    endloop
  endfacet
  facet normal 0 0 1
    outer loop
      vertex 0.0193321 0.0594981 0.2
      vertex 0.0266368 -0.056606 0.2
      vertex 0.0266368 0.056606 0.2
    endloop
  endfacet
  facet normal 0 0 1
    outer loop
      vertex 0.0193321 0.0594981 0.2
      vertex 0.0193321 -0.0594981 0.2
      vertex 0.0266368 -0.056606 0.2
    endloop
  endfacet
  facet normal 0 0 1
    outer loop
      vertex 0.0117226 0.0614519 0.2
      vertex 0.0193321 -0.0594981 0.2
      vertex 0.0193321 0.0594981 0.2
    endloop
  endfacet
  facet normal 0 0 1
    outer loop
      vertex 0.0117226 0.0614519 0.2
      vertex 0.0117226 -0.0614519 0.2
      vertex 0.0193321 -0.0594981 0.2
    endloop
  endfacet
  facet normal 0 0 1
    outer loop
      vertex 0.00392817 0.0624366 0.2
      vertex 0.0117226 -0.0614519 0.2
      vertex 0.0117226 0.0614519 0.2
    endloop
  endfacet
  facet normal 0 0 1
    outer loop
      vertex 0.00392817 0.0624366 0.2
      vertex 0.00392817 -0.0624366 0.2
      vertex 0.0117226 -0.0614519 0.2
    endloop
  endfacet
  facet normal -0 0 1
    outer loop
      vertex -0.00392817 0.0624366 0.2
      vertex 0.00392817 -0.0624366 0.2
      vertex 0.00392817 0.0624366 0.2
    endloop
  endfacet
  facet normal 0 0 1
    outer loop
      vertex -0.00392817 0.0624366 0.2
      vertex -0.00392817 -0.0624366 0.2
      vertex 0.00392817 -0.0624366 0.2
    endloop
  endfacet
  facet normal -0 0 1
    outer loop
      vertex -0.0117226 0.0614519 0.2
      vertex -0.00392817 -0.0624366 0.2
      vertex -0.00392817 0.0624366 0.2
    endloop
  endfacet
  facet normal 0 0 1
    outer loop
      vertex -0.0117226 0.0614519 0.2
      vertex -0.0117226 -0.0614519 0.2
      vertex -0.00392817 -0.0624366 0.2
    endloop
  endfacet
  facet normal -0 0 1
    outer loop
      vertex -0.0193321 0.0594981 0.2
      vertex -0.0117226 -0.0614519 0.2
      vertex -0.0117226 0.0614519 0.2
    endloop
  endfacet
  facet normal 0 0 1
    outer loop
      vertex -0.0193321 0.0594981 0.2
      vertex -0.0193321 -0.0594981 0.2
      vertex -0.0117226 -0.0614519 0.2
    endloop
  endfacet
  facet normal -0 0 1
    outer loop
      vertex -0.0266368 0.056606 0.2
      vertex -0.0193321 -0.0594981 0.2
      vertex -0.0193321 0.0594981 0.2
    endloop
  endfacet
  facet normal 0 0 1
    outer loop
      vertex -0.0266368 0.056606 0.2
      vertex -0.0266368 -0.056606 0.2
      vertex -0.0193321 -0.0594981 0.2
    endloop
  endfacet
  facet normal -0 0 1
    outer loop
      vertex -0.0335213 0.0528212 0.2
      vertex -0.0266368 -0.056606 0.2
      vertex -0.0266368 0.056606 0.2
    endloop
  endfacet
  facet normal 0 0 1
    outer loop
      vertex -0.0335213 0.0528212 0.2
      vertex -0.0335213 -0.0528212 0.2
      vertex -0.0266368 -0.056606 0.2
    endloop
  endfacet
  facet normal -0 0 1
    outer loop
      vertex -0.0398772 0.0482033 0.2
      vertex -0.0335213 -0.0528212 0.2
      vertex -0.0335213 0.0528212 0.2
    endloop
  endfacet
  facet normal 0 0 1
    outer loop
      vertex -0.0398772 0.0482033 0.2
      vertex -0.0398772 -0.0482033 0.2
      vertex -0.0335213 -0.0528212 0.2
    endloop
  endfacet
  facet normal -0 0 1
    outer loop
      vertex -0.0456043 0.0428253 0.2
      vertex -0.0398772 -0.0482033 0.2
      vertex -0.0398772 0.0482033 0.2
    endloop
  endfacet
  facet normal 0 0 1
    outer loop
      vertex -0.0456043 0.0428253 0.2
      vertex -0.0456043 -0.0428253 0.2
      vertex -0.0398772 -0.0482033 0.2
    endloop
  endfacet
  facet normal -0 0 1
    outer loop
      vertex -0.0506121 0.0367718 0.2
      vertex -0.0456043 -0.0428253 0.2
      vertex -0.0456043 0.0428253 0.2
    endloop
  endfacet
  facet normal 0 0 1
    outer loop
      vertex -0.0506121 0.0367718 0.2
      vertex -0.0506121 -0.0367718 0.2
      vertex -0.0456043 -0.0428253 0.2
    endloop
  endfacet
  facet normal -0 0 1
    outer loop
      vertex -0.0548217 0.0301385 0.2
      vertex -0.0506121 -0.0367718 0.2
      vertex -0.0506121 0.0367718 0.2
    endloop
  endfacet
  facet normal 0 0 1
    outer loop
      vertex -0.0548217 0.0301385 0.2
      vertex -0.0548217 -0.0301385 0.2
      vertex -0.0506121 -0.0367718 0.2
    endloop
  endfacet
  facet normal -0 0 1
    outer loop
      vertex -0.0581668 0.0230299 0.2
      vertex -0.0548217 -0.0301385 0.2
      vertex -0.0548217 0.0301385 0.2
    endloop
  endfacet
  facet normal 0 0 1
    outer loop
      vertex -0.0581668 0.0230299 0.2
      vertex -0.0581668 -0.0230299 0.2
      vertex -0.0548217 -0.0301385 0.2
    endloop
  endfacet
  facet normal -0 0 1
    outer loop
      vertex -0.0605946 0.015558 0.2
      vertex -0.0581668 -0.0230299 0.2
      vertex -0.0581668 0.0230299 0.2
    endloop
  endfacet
  facet normal 0 0 1
    outer loop
      vertex -0.0605946 0.015558 0.2
      vertex -0.0605946 -0.015558 0.2
      vertex -0.0581668 -0.0230299 0.2
    endloop
  endfacet
  facet normal -0 0 1
    outer loop
      vertex -0.0620667 0.00784085 0.2
      vertex -0.0605946 -0.015558 0.2
      vertex -0.0605946 0.015558 0.2
    endloop
  endfacet
  facet normal 0 0 1
    outer loop
      vertex -0.0620667 0.00784085 0.2
      vertex -0.0620667 -0.00784085 0.2
      vertex -0.0605946 -0.015558 0.2
    endloop
  endfacet
  facet normal 0 -0 1
    outer loop
      vertex -0.0620667 -0.00784085 0.2
      vertex -0.0620667 0.00784085 0.2
      vertex -0.06256 7.66139e-18 0.2
    endloop
  endfacet
endsolid OpenSCAD_Model
